<?xml version="1.0" encoding="iso-8859-1"?>
<!-- Uploaded to: SVG Repo, www.svgrepo.com, Generator: SVG Repo Mixer Tools -->
<svg width="797" height="796" viewBox="0 0 797 796" fill="none" xmlns="http://www.w3.org/2000/svg">
<path d="M126.995 345.799C116.47 355.091 108.736 367.127 104.66 380.562C100.583 393.997 100.324 408.301 103.911 421.875C107.498 435.449 114.79 447.757 124.972 457.424C135.154 467.091 147.824 473.735 161.566 476.613C175.308 479.492 189.579 478.491 202.784 473.723C215.99 468.955 227.609 460.607 236.342 449.614C245.075 438.621 250.578 425.415 252.236 411.474C253.893 397.532 251.64 383.404 245.729 370.669L248.158 368.52C261.043 357.119 277.929 351.303 295.102 352.352C312.275 353.401 328.327 361.229 339.729 374.114L397.047 438.891C412.694 456.233 433.398 468.216 456.229 473.144L389.023 532.612C373.589 523.006 355.212 519.278 337.255 522.108C319.297 524.938 302.958 534.137 291.225 548.023C279.492 561.909 273.15 579.555 273.358 597.733C273.565 615.911 280.309 633.407 292.356 647.021C304.403 660.636 320.948 669.46 338.965 671.878C356.983 674.297 375.269 670.15 390.481 660.195C405.692 650.24 416.811 635.142 421.806 617.662C426.801 600.183 425.337 581.489 417.682 565L552.094 446.065C567.529 455.67 585.905 459.399 603.863 456.569C621.82 453.739 638.159 444.54 649.892 430.654C661.625 416.768 667.967 399.122 667.76 380.944C667.552 362.766 660.808 345.27 648.761 331.655C636.715 318.041 620.17 309.217 602.152 306.799C584.134 304.38 565.848 308.527 550.637 318.482C535.426 328.437 524.306 343.535 519.311 361.015C514.316 378.494 515.78 397.188 523.435 413.677L521.006 415.826C508.121 427.228 491.235 433.043 474.062 431.994C456.889 430.945 440.836 423.117 429.435 410.232L372.117 345.455C353.115 323.98 326.36 310.934 297.739 309.185C269.117 307.437 240.974 317.13 219.499 336.132L217.07 338.281C203.245 329.678 187.014 325.763 170.787 327.117C154.56 328.471 139.203 335.023 126.995 345.799Z" fill="black"/>
<path d="M776.088 19.514C737.03 -19.5445 664.006 -5.95929 557.018 56.8755C504.372 31.4021 448.331 17.8169 388.893 17.8169C285.301 17.8169 186.806 58.5742 113.781 131.598C40.7573 204.622 0 303.118 0 406.71C0 510.302 40.7573 608.798 113.781 681.822C186.806 754.846 285.301 795.604 388.893 795.604C492.486 795.604 590.981 754.846 664.005 681.822C737.03 608.798 777.787 510.302 777.787 406.71C777.787 347.273 764.202 291.232 738.728 238.586C794.768 143.485 816.846 60.273 776.088 19.514ZM614.758 630.874C555.32 690.311 473.806 724.277 388.893 724.277C303.983 724.277 224.165 692.01 163.029 630.874C103.592 571.437 69.6266 489.922 69.6266 405.01C69.6266 320.098 103.591 238.585 163.029 179.146C222.467 119.709 303.981 85.7431 388.893 85.7431C473.804 85.7431 555.319 119.707 614.758 179.146C631.74 196.129 647.024 216.507 660.61 236.886C638.533 270.001 611.361 307.362 578.246 347.908C575.699 457.655 641.93 381.235 692.876 308.213C703.066 340.48 708.16 372.745 708.16 405.012C708.16 489.922 675.894 569.74 614.758 630.874ZM699.668 172.356C689.479 158.77 677.591 143.486 664.005 131.598C652.117 119.71 638.532 107.824 624.947 97.6344C696.272 61.9717 723.444 63.6689 728.539 68.7651C737.03 77.2541 730.236 114.616 699.668 172.356Z" fill="black"/>
</svg>
